<svg width="22" height="22" viewBox="0 0 22 22" fill="none" xmlns="http://www.w3.org/2000/svg">
    <path fill-rule="evenodd" clip-rule="evenodd" d="M10.95 0.350006C8.97679 0.350006 7.0844 1.13386 5.68913 2.52913C4.29386 3.9244 3.51 5.81679 3.51 7.79001C3.51 11.3981 2.74024 13.6455 2.02643 14.9587C1.66816 15.6177 1.31858 16.0515 1.07427 16.3104C0.951848 16.4401 0.855172 16.5267 0.796139 16.5761C0.76661 16.6008 0.746466 16.6162 0.737199 16.6232L0.732736 16.6265C0.374532 16.8731 0.216452 17.3237 0.343225 17.7408C0.471261 18.1621 0.859735 18.45 1.3 18.45H7.30872C7.39352 19.2848 7.76336 20.0694 8.36197 20.668C9.04835 21.3544 9.97929 21.74 10.95 21.74C11.9207 21.74 12.8516 21.3544 13.538 20.668C14.1366 20.0694 14.5064 19.2848 14.5912 18.45H20.61C21.0505 18.45 21.4392 18.1617 21.567 17.7401C21.6935 17.3227 21.5349 16.8719 21.1761 16.6256L21.1715 16.6223C21.1622 16.6153 21.1419 16.5998 21.1123 16.5751C21.053 16.5256 20.956 16.439 20.8331 16.3093C20.588 16.0503 20.2373 15.6165 19.878 14.9575C19.162 13.6446 18.39 11.3976 18.39 7.79001C18.39 5.81679 17.6061 3.9244 16.2109 2.52913C14.8156 1.13386 12.9232 0.350006 10.95 0.350006ZM18.4355 16.45H3.47042C3.57439 16.2843 3.67922 16.1058 3.78358 15.9139C4.67477 14.2745 5.51 11.6919 5.51 7.79001C5.51 6.34723 6.08315 4.96354 7.10334 3.94335C8.12354 2.92315 9.50723 2.35001 10.95 2.35001C12.3928 2.35001 13.7765 2.92315 14.7967 3.94335C15.8169 4.96354 16.39 6.34723 16.39 7.79001C16.39 11.6924 17.228 14.2754 18.1221 15.915C18.2265 16.1065 18.3314 16.2847 18.4355 16.45ZM9.77618 19.2538C9.7215 19.1991 9.67103 19.141 9.62498 19.08H12.275C12.2289 19.141 12.1785 19.1991 12.1238 19.2538C11.8125 19.5651 11.3902 19.74 10.95 19.74C10.5097 19.74 10.0875 19.5651 9.77618 19.2538Z" fill="#505F79"/>
</svg>
