<svg width="24" height="24" viewBox="0 0 24 24" fill="none" xmlns="http://www.w3.org/2000/svg">
    <path d="M12 22C10.0222 22 8.08879 21.4135 6.4443 20.3147C4.79981 19.2159 3.51809 17.6541 2.76121 15.8268C2.00433 13.9996 1.8063 11.9889 2.19215 10.0491C2.578 8.10929 3.53041 6.32746 4.92894 4.92894C6.32746 3.53041 8.10929 2.578 10.0491 2.19215C11.9889 1.8063 13.9996 2.00433 15.8268 2.76121C17.6541 3.51809 19.2159 4.79981 20.3147 6.4443C21.4135 8.08879 22 10.0222 22 12C22 14.6522 20.9464 17.1957 19.0711 19.0711C17.1957 20.9464 14.6522 22 12 22ZM12 4C10.4178 4 8.87104 4.4692 7.55544 5.34825C6.23985 6.2273 5.21447 7.47673 4.60897 8.93854C4.00347 10.4003 3.84504 12.0089 4.15372 13.5607C4.4624 15.1126 5.22433 16.538 6.34315 17.6569C7.46197 18.7757 8.88743 19.5376 10.4393 19.8463C11.9911 20.155 13.5997 19.9965 15.0615 19.391C16.5233 18.7855 17.7727 17.7602 18.6518 16.4446C19.5308 15.129 20 13.5823 20 12C19.9869 9.88232 19.1398 7.8551 17.6424 6.35764C16.1449 4.86018 14.1177 4.01312 12 4Z" fill="#505F79"/>
    <path d="M14.3101 7.53999C12.6801 6.12999 8.65006 6.53999 8.83006 9.37999C8.84443 9.64054 8.9544 9.88662 9.13891 10.0711C9.32343 10.2556 9.56951 10.3656 9.83006 10.38C9.96552 10.3868 10.101 10.3659 10.2281 10.3187C10.3553 10.2715 10.4715 10.1989 10.5697 10.1054C10.6679 10.0118 10.7461 9.89929 10.7994 9.77459C10.8528 9.64988 10.8802 9.51563 10.8801 9.37999C10.8801 9.11478 10.9854 8.86042 11.173 8.67289C11.3605 8.48535 11.6148 8.37999 11.8801 8.37999C13.0001 8.30999 13.2301 9.68999 12.7401 10.45C11.8501 11.56 10.4701 11.83 10.6101 13.45V13.5C10.7101 14.58 12.7701 14.5 12.7501 13.45C12.5901 12.1 14.0601 11.95 14.6401 10.99C15.0005 10.4683 15.1651 9.83601 15.1047 9.20477C15.0443 8.57353 14.7629 7.98391 14.3101 7.53999Z" fill="#505F79"/>
    <path d="M11.73 17.24C12.321 17.24 12.8 16.761 12.8 16.17C12.8 15.5791 12.321 15.1 11.73 15.1C11.1391 15.1 10.66 15.5791 10.66 16.17C10.66 16.761 11.1391 17.24 11.73 17.24Z" fill="#505F79"/>
</svg>
