<svg width="22" height="22" viewBox="0 0 22 22" fill="none" xmlns="http://www.w3.org/2000/svg">
<path fill-rule="evenodd" clip-rule="evenodd" d="M1.44995 0.450012C0.897666 0.450012 0.449951 0.897727 0.449951 1.45001V8.87001C0.449951 9.4223 0.897666 9.87001 1.44995 9.87001H8.86995C9.42224 9.87001 9.86995 9.4223 9.86995 8.87001V1.45001C9.86995 0.897727 9.42224 0.450012 8.86995 0.450012H1.44995ZM2.44995 7.87001V2.45001H7.86995V7.87001H2.44995ZM13.1199 0.450012C12.5676 0.450012 12.1199 0.897727 12.1199 1.45001V8.87001C12.1199 9.4223 12.5676 9.87001 13.1199 9.87001H20.5399C21.0922 9.87001 21.5399 9.4223 21.5399 8.87001V1.45001C21.5399 0.897727 21.0922 0.450012 20.5399 0.450012H13.1199ZM14.1199 7.87001V2.45001H19.5399V7.87001H14.1199ZM12.1199 13.12C12.1199 12.5677 12.5676 12.12 13.1199 12.12H20.5399C21.0922 12.12 21.5399 12.5677 21.5399 13.12V20.54C21.5399 21.0923 21.0922 21.54 20.5399 21.54H13.1199C12.5676 21.54 12.1199 21.0923 12.1199 20.54V13.12ZM14.1199 14.12V19.54H19.5399V14.12H14.1199ZM1.44995 12.12C0.897666 12.12 0.449951 12.5677 0.449951 13.12V20.54C0.449951 21.0923 0.897666 21.54 1.44995 21.54H8.86995C9.42224 21.54 9.86995 21.0923 9.86995 20.54V13.12C9.86995 12.5677 9.42224 12.12 8.86995 12.12H1.44995ZM2.44995 19.54V14.12H7.86995V19.54H2.44995Z" fill="#505F79"/>
</svg>
