<svg width="107" height="129" viewBox="0 0 107 129" fill="none" xmlns="http://www.w3.org/2000/svg">
    <g clip-path="url(#clip0)">
        <path d="M89.1501 116.87C89.1243 116.88 89.0958 116.88 89.0701 116.87H88.84H88.7301L88.6601 116.77C88.5708 116.611 88.4397 116.48 88.2811 116.39C88.1225 116.3 87.9423 116.255 87.7601 116.26C87.5596 116.255 87.3618 116.307 87.1901 116.41C87.1182 116.456 87.0593 116.52 87.0191 116.595C86.9788 116.67 86.9585 116.755 86.9601 116.84C86.9573 116.897 86.9666 116.954 86.9872 117.008C87.0079 117.061 87.0395 117.11 87.0801 117.15C87.1762 117.245 87.2924 117.316 87.4201 117.36C87.6527 117.443 87.8897 117.513 88.13 117.57C88.4577 117.635 88.7658 117.776 89.0301 117.98C89.1204 118.066 89.1913 118.17 89.2379 118.286C89.2845 118.401 89.3057 118.526 89.3001 118.65C89.3008 118.862 89.2343 119.068 89.1101 119.24C88.9771 119.425 88.7929 119.568 88.5801 119.65C88.3279 119.746 88.0599 119.794 87.7901 119.79C87.529 119.794 87.2701 119.743 87.0301 119.64C86.827 119.546 86.6464 119.409 86.5001 119.24C86.3787 119.104 86.305 118.932 86.2901 118.75C86.2885 118.734 86.2905 118.718 86.296 118.702C86.3015 118.687 86.3103 118.673 86.3218 118.662C86.3332 118.65 86.3471 118.641 86.3624 118.636C86.3776 118.631 86.3939 118.628 86.4101 118.63H86.6401H86.7401C86.7738 118.657 86.8012 118.691 86.8201 118.73C86.8909 118.88 87.0016 119.008 87.1401 119.1C87.3347 119.221 87.5612 119.28 87.7901 119.27C88.0327 119.279 88.2726 119.216 88.4801 119.09C88.5654 119.047 88.6375 118.981 88.6885 118.9C88.7396 118.819 88.7678 118.726 88.77 118.63C88.7704 118.57 88.7571 118.511 88.7311 118.458C88.7051 118.404 88.6671 118.357 88.6201 118.32C88.4988 118.221 88.3596 118.146 88.2101 118.1C88.0401 118.1 87.79 117.97 87.45 117.89C87.1551 117.834 86.8835 117.691 86.6701 117.48C86.5129 117.296 86.4276 117.062 86.4301 116.82C86.4276 116.629 86.4796 116.442 86.5801 116.28C86.6909 116.111 86.8468 115.976 87.0301 115.89C87.2566 115.778 87.5073 115.723 87.7601 115.73C88.0202 115.725 88.2776 115.783 88.5101 115.9C88.7041 115.995 88.8722 116.136 89.0001 116.31C89.1053 116.435 89.1714 116.588 89.1901 116.75C89.1952 116.772 89.1942 116.795 89.1871 116.816C89.1801 116.837 89.1672 116.856 89.1501 116.87Z" fill="#C55328"/>
        <path d="M92.8998 116C92.9181 115.948 92.9519 115.903 92.9966 115.871C93.0413 115.839 93.0947 115.821 93.1498 115.82H93.3598C93.4016 115.822 93.4411 115.84 93.4698 115.87C93.4764 115.886 93.4798 115.903 93.4798 115.92C93.4798 115.937 93.4764 115.954 93.4698 115.97V119.6C93.4764 119.616 93.4798 119.633 93.4798 119.65C93.4798 119.667 93.4764 119.684 93.4698 119.7C93.4343 119.713 93.3953 119.713 93.3598 119.7H93.1298C93.0921 119.694 93.0573 119.676 93.0303 119.649C93.0034 119.622 92.9857 119.588 92.9798 119.55V116.89L92.1098 118.58C92.084 118.629 92.0502 118.673 92.0098 118.71C91.9677 118.724 91.9219 118.724 91.8798 118.71H91.6598C91.6177 118.724 91.5719 118.724 91.5298 118.71C91.4863 118.675 91.452 118.631 91.4298 118.58L90.5598 116.89V119.55C90.5539 119.588 90.5362 119.622 90.5092 119.649C90.4823 119.676 90.4474 119.694 90.4098 119.7H90.1798C90.1624 119.707 90.1437 119.711 90.1248 119.711C90.1059 119.711 90.0872 119.707 90.0698 119.7C90.0575 119.668 90.0575 119.632 90.0698 119.6V116C90.0575 115.968 90.0575 115.932 90.0698 115.9C90.0832 115.884 90.1001 115.871 90.1191 115.863C90.1381 115.854 90.1589 115.85 90.1798 115.85H90.3898C90.4445 115.852 90.4973 115.871 90.5418 115.903C90.5862 115.935 90.6203 115.979 90.6398 116.03L91.7698 118.22L92.8998 116Z" fill="#C55328"/>
        <path d="M0 19.46V65.46C0 114.75 53.15 129 53.15 129C53.15 129 106.29 114.75 106.29 65.46V19.46C106.29 19.46 77.29 16.68 53.15 0C29 16.68 0 19.46 0 19.46Z" fill="#C55328"/>
        <path d="M53.0002 6.42999C34.4802 18.25 14.2702 22.65 5.2002 24.13V65.46C5.2002 84 13.3202 99.38 29.3202 111.2C36.538 116.462 44.5256 120.577 53.0002 123.4V6.42999Z" fill="#E97C24"/>
        <path d="M78.3598 80.22L77.9998 94.85C71.6033 97.9992 64.5486 99.5794 57.4198 99.46C52.5172 99.521 47.6402 98.7431 42.9998 97.16C38.8549 95.7355 35.0535 93.4602 31.8398 90.48C28.6716 87.4786 26.1884 83.8289 24.5598 79.78C22.7527 75.2392 21.8589 70.3866 21.9298 65.5C21.8565 60.6499 22.7824 55.8367 24.6498 51.36C26.3671 47.2991 28.9308 43.6513 32.1698 40.66C35.4686 37.6652 39.335 35.363 43.5398 33.89C48.1476 32.282 52.9998 31.4868 57.8798 31.54C61.0292 31.551 64.1691 31.8861 67.2498 32.54C70.6486 33.2799 73.9134 34.538 76.9298 36.27L77.3398 50.89L68.9098 50.94L66.9098 38.87C63.6998 37.49 63.3598 36.76 60.4598 36.76C57.5814 36.7417 54.7365 37.3777 52.1398 38.62C49.4947 39.9153 47.1795 41.7963 45.3698 44.12C43.3133 46.8122 41.777 49.8644 40.8398 53.12C40.8398 53.2 40.8398 53.28 40.7798 53.35V78C41.6588 81.2089 43.1383 84.2222 45.1398 86.88C46.8847 89.2004 49.1525 91.0764 51.7589 92.3553C54.3654 93.6342 57.2368 94.2799 60.1398 94.24C61.8207 94.234 63.4964 94.0531 65.1398 93.7C66.8398 93.34 66.1398 92.85 67.8798 92.13L69.9298 80.25L78.3598 80.22ZM33.6998 85L36.1798 88.12V42.79L33.6998 45.91V85ZM27.9198 79.79L30.3998 82.92V48L27.9198 51.12V79.79Z" fill="white"/>
    </g>
    <defs>
        <clipPath id="clip0">
            <rect width="106.29" height="129" fill="white"/>
        </clipPath>
    </defs>
</svg>
