<svg width="106" height="129" viewBox="0 0 106 129" fill="none" xmlns="http://www.w3.org/2000/svg">
    <path d="M53 129C53 129 106 114.8 106 65.5V19.5C106 19.5 77.109 16.7 53 0C28.891 16.7 0 19.5 0 19.5V65.5C0 114.8 53 129 53 129Z" fill="#264C92"/>
    <path d="M53.0002 6.39999C34.5697 18.2 14.346 22.7 5.37988 24.1V65.4C5.37988 83.9 13.4494 99.3 29.3893 111.1C39.2521 118.4 49.4137 122.1 53.0002 123.3V6.39999Z" fill="#3075B6"/>
    <path d="M60.1732 38C60.0735 42 59.9739 45.9 59.9739 49.9V62V65.3V77.3C59.9739 81.3 60.0735 85.3 60.1732 89.3L67.8442 90.2V95H38.1562V90.2L45.8273 89.3C45.9269 85.3 46.0266 81.4 46.0266 77.4V65.4V62V50C46.0266 46 45.9269 42 45.8273 38L38.1562 37.1V32.3H67.8442V37.1L60.1732 38Z" fill="white"/>
    <path d="M54.1957 37.9H51.8047V89.5H54.1957V37.9Z" fill="#3D7CC9"/>
    <path d="M88.9643 116.9C88.9643 116.9 88.8647 116.9 88.9643 116.9H88.6654H88.5658C88.5658 116.9 88.5658 116.9 88.4662 116.8C88.3665 116.7 88.2669 116.6 88.1673 116.5C88.0677 116.4 87.8684 116.3 87.5696 116.3C87.3703 116.3 87.1711 116.4 86.9718 116.5C86.7726 116.6 86.7726 116.7 86.7726 116.9C86.7726 117 86.7726 117.1 86.8722 117.2C86.9718 117.3 87.0714 117.3 87.1711 117.4C87.3703 117.5 87.5695 117.5 87.8684 117.6C88.2669 117.7 88.5658 117.8 88.765 118C88.9643 118.2 89.0639 118.4 89.0639 118.7C89.0639 118.9 88.9643 119.1 88.8647 119.3C88.765 119.5 88.5658 119.6 88.3665 119.7C88.1673 119.8 87.8684 119.8 87.5696 119.8C87.2707 119.8 87.0714 119.7 86.7726 119.6C86.5733 119.5 86.3741 119.4 86.2744 119.2C86.1748 119 86.0752 118.9 86.0752 118.7V118.6H86.1748H86.3741H86.4737C86.4737 118.6 86.5733 118.6 86.5733 118.7C86.6729 118.8 86.7726 119 86.8722 119.1C87.0714 119.2 87.2707 119.3 87.4699 119.3C87.7688 119.3 87.968 119.2 88.1673 119.1C88.3665 119 88.4662 118.8 88.4662 118.6C88.4662 118.5 88.4662 118.4 88.3665 118.3C88.2669 118.2 88.1673 118.1 87.9681 118.1C87.7688 118 87.5696 118 87.1711 117.9C86.7726 117.8 86.5733 117.7 86.3741 117.5C86.1748 117.3 86.1748 117.1 86.1748 116.8C86.1748 116.6 86.2744 116.4 86.3741 116.3C86.4737 116.1 86.6729 116 86.8722 115.9C87.0714 115.8 87.2707 115.7 87.5696 115.7C87.8684 115.7 88.0677 115.8 88.2669 115.9C88.4662 116 88.6654 116.1 88.765 116.3C88.9643 116.5 88.9643 116.6 88.9643 116.9C88.9643 116.8 88.9643 116.8 88.9643 116.9Z" fill="#264C92"/>
    <path d="M92.6503 116C92.7499 115.9 92.7499 115.8 92.8495 115.8H93.0488H93.1484V115.9V119.5V119.6H93.0488H92.8495H92.7499V119.5V116.8L91.8533 118.5C91.8533 118.6 91.7537 118.6 91.7537 118.6H91.6541H91.4548C91.3552 118.6 91.3552 118.6 91.3552 118.6L91.2556 118.5L90.3589 116.8V119.5V119.6H90.2593H90.0601H89.9604V119.5V116V115.9H90.0601H90.2593C90.3589 115.9 90.4586 116 90.4586 116.1L91.5544 118.3L92.6503 116Z" fill="#264C92"/>
</svg>
