<svg width="106" height="129" viewBox="0 0 106 129" fill="none" xmlns="http://www.w3.org/2000/svg">
    <path d="M0 19.5V65.5C0 114.8 52.9501 129 52.9501 129C52.9501 129 105.9 114.8 105.9 65.5V19.5C105.9 19.5 76.9821 16.7 52.9501 0C28.9182 16.7 0 19.5 0 19.5Z" fill="#3F2B56"/>
    <path d="M52.8504 6.39999C34.4026 18.2 14.2596 22.7 5.1853 24.1V65.4C5.1853 83.9 13.2624 99.3 29.2173 111.1C39.0893 118.4 49.2606 122.1 52.8504 123.3" fill="#715091"/>
    <path d="M73.1929 76.5L70.5005 89.8H52.8504V89.4V38.1L60.5287 37.2V32.4H45.4713H30.3142V37.2L37.9925 38.1V89.4L30.3142 90.3V95H45.3716H52.8504H79.7742L80.7714 76.5H73.1929ZM43.7761 89.5H41.3829V37.9H43.7761V89.5ZM49.46 89.5H47.0668V37.9H49.46V89.5Z" fill="white"/>
    <path d="M89.0479 116.9C89.0479 116.9 88.9482 116.9 89.0479 116.9H88.7488H88.6491C88.6491 116.9 88.6491 116.9 88.5494 116.8C88.4496 116.7 88.3499 116.6 88.2502 116.5C88.1505 116.4 87.951 116.3 87.6519 116.3C87.4525 116.3 87.253 116.4 87.0536 116.5C86.8542 116.6 86.8541 116.7 86.8541 116.9C86.8541 117 86.8541 117.1 86.9539 117.2C87.0536 117.3 87.1533 117.3 87.253 117.4C87.4525 117.5 87.6519 117.5 87.951 117.6C88.3499 117.7 88.6491 117.8 88.8485 118C89.0479 118.2 89.1477 118.4 89.1477 118.7C89.1477 118.9 89.0479 119.1 88.9482 119.3C88.8485 119.5 88.6491 119.6 88.4496 119.7C88.2502 119.8 87.951 119.8 87.6519 119.8C87.3527 119.8 87.1533 119.7 86.8541 119.6C86.6547 119.5 86.4553 119.4 86.3556 119.2C86.2558 119 86.1561 118.9 86.1561 118.7V118.6H86.2558H86.4553H86.555C86.555 118.6 86.6547 118.6 86.6547 118.7C86.7544 118.8 86.8541 119 86.9539 119.1C87.1533 119.2 87.3527 119.3 87.5522 119.3C87.8513 119.3 88.0508 119.2 88.2502 119.1C88.4496 119 88.5494 118.8 88.5494 118.6C88.5494 118.5 88.5493 118.4 88.4496 118.3C88.3499 118.2 88.2502 118.1 88.0508 118.1C87.8513 118 87.6519 118 87.253 117.9C86.8542 117.8 86.6547 117.7 86.4553 117.5C86.2558 117.3 86.2558 117.1 86.2558 116.8C86.2558 116.6 86.3556 116.4 86.4553 116.3C86.555 116.1 86.7544 116 86.9539 115.9C87.1533 115.8 87.3527 115.7 87.6519 115.7C87.951 115.7 88.1505 115.8 88.3499 115.9C88.5494 116 88.7488 116.1 88.8485 116.3C89.0479 116.5 89.0479 116.6 89.0479 116.9C89.0479 116.8 89.0479 116.8 89.0479 116.9Z" fill="#715091"/>
    <path d="M92.7375 116C92.8372 115.9 92.8372 115.8 92.9369 115.8H93.1364H93.2361V115.9V119.5V119.6H93.1364H92.9369H92.8372V119.5V116.8L91.9397 118.5C91.9397 118.6 91.84 118.6 91.84 118.6H91.7403H91.5409C91.4412 118.6 91.4411 118.6 91.4411 118.6L91.3414 118.5L90.444 116.8V119.5V119.6H90.3443H90.1448H90.0451V119.5V116V115.9H90.1448H90.3443C90.444 115.9 90.5437 116 90.5437 116.1L91.6406 118.3L92.7375 116Z" fill="#715091"/>
</svg>
